<?xml version="1.0" encoding="UTF-8" standalone="no"?>
<!DOCTYPE svg PUBLIC "-//W3C//DTD SVG 1.1//EN" "http://www.w3.org/Graphics/SVG/1.1/DTD/svg11.dtd">
<svg width="100%" height="100%" viewBox="0 0 300 300" version="1.1" xmlns="http://www.w3.org/2000/svg" xmlns:xlink="http://www.w3.org/1999/xlink" xml:space="preserve" xmlns:serif="http://www.serif.com/" style="fill-rule:evenodd;clip-rule:evenodd;stroke-linecap:round;stroke-linejoin:round;stroke-miterlimit:1.5;">
    <g transform="matrix(1,0,0,1,-101.5,7.5)">
        <path d="M141.5,76.5L141.5,208.5L251.5,274L251.5,165L303,196" style="fill:none;stroke:black;stroke-width:4.86px;"/>
    </g>
    <g transform="matrix(1,0,0,1,-101.5,7.5)">
        <path d="M141.5,76.5C141.5,76.5 324.332,185.937 324,184.5C323.668,183.063 271,214 271,214" style="fill:none;stroke:black;stroke-width:4.86px;"/>
    </g>
    <g transform="matrix(1,0,0,1.03448,-104.5,0.362069)">
        <path d="M274,178L274,236" style="fill:none;stroke:black;stroke-width:4.78px;"/>
    </g>
    <g transform="matrix(1,0,0,1,-101.5,7.5)">
        <path d="M180,122L180,185L231,215" style="fill:none;stroke:black;stroke-width:4.86px;"/>
    </g>
    <g transform="matrix(1,0,0,1,-101.5,7.5)">
        <path d="M161.5,196L180,185" style="fill:none;stroke:black;stroke-width:4.86px;"/>
    </g>
    <g transform="matrix(1,0,0,1,-101.5,7.5)">
        <path d="M271,237L361.5,182L273.5,131.25L361.5,76.5L251.5,11L141.5,76.5" style="fill:none;stroke:black;stroke-width:4.86px;"/>
    </g>
    <g transform="matrix(1,0,0,1,-101.5,7.5)">
        <path d="M177.5,76.5L251.5,33L323.5,76.5L252.5,120L177.5,76.5Z" style="fill:none;stroke:black;stroke-width:4.86px;"/>
    </g>
    <g transform="matrix(1,0,0,1,-101.5,7.5)">
        <path d="M251.5,33L251.5,57L200.25,88" style="fill:none;stroke:black;stroke-width:4.86px;"/>
    </g>
    <path d="M150,64.5L202,96.5" style="fill:none;stroke:black;stroke-width:4.86px;"/>
    <g transform="matrix(1,0,0,1,-101.5,7.5)">
        <path d="M361.5,76.5L361.5,100L295,143" style="fill:none;stroke:black;stroke-width:4.86px;"/>
    </g>
    <g transform="matrix(1,0,0,1,-101.5,7.5)">
        <path d="M361.5,182L361.5,209L251.5,274" style="fill:none;stroke:black;stroke-width:4.86px;"/>
    </g>
    <g transform="matrix(1,0,0,1,-101.5,7.5)">
        <path d="M161.5,111L161.5,196C161.5,196 231.198,236.544 231,237C230.802,237.456 231,153.75 231,153.75L161.5,111Z" style="fill:none;stroke:black;stroke-width:4.86px;"/>
    </g>
</svg>
