<?xml version="1.0" encoding="UTF-8" standalone="no"?>
<!DOCTYPE svg PUBLIC "-//W3C//DTD SVG 1.1//EN" "http://www.w3.org/Graphics/SVG/1.1/DTD/svg11.dtd">
<svg width="100%" height="100%" viewBox="0 0 128 128" version="1.1" xmlns="http://www.w3.org/2000/svg" xmlns:xlink="http://www.w3.org/1999/xlink" xml:space="preserve" xmlns:serif="http://www.serif.com/" style="fill-rule:evenodd;clip-rule:evenodd;stroke-linejoin:round;stroke-miterlimit:2;">
    <path d="M11,128C12.3,121.168 16.227,117.103 14.99,110.285C13.071,99.708 10.767,100.378 9.85,89.834C9.508,85.904 9.308,81.884 10,78C10.886,73.027 4.641,59.717 8,56C12.327,51.212 15.513,55.729 20,53C23.494,50.875 23.515,46.49 26.232,43.434C28.95,40.376 33.633,39.337 36,36C40.618,29.489 35.28,20.405 35.28,13.829C35.28,10.912 37.811,8.836 41,9C54.778,9.707 36.736,25.896 47,34C51.448,37.512 58.339,33.758 64,34C67.016,34.129 69.982,35 73,35C76.945,35 76.057,27.394 76.114,26.417C76.298,23.283 76.281,20.127 76,17L74,11C74,6.956 79.328,5.57 82,8C84.651,10.411 82.212,12.572 82,15C81.921,15.903 80.503,32.079 83,35C85.824,38.304 90.289,39.737 94,42C100.772,46.13 109.706,51.823 115,58C118.968,62.63 112.871,65.586 113,70C113.209,77.124 116,82.733 116,90C116,96.128 113.408,96.474 115,103C116.54,109.31 118.806,108.42 119.816,114.795C119.875,115.17 118.762,113.704 119,114C121.414,117.01 124.263,119.697 126.35,122.943C127.309,124.434 129.772,127.922 128,128C89.037,129.708 49.991,128.854 11,128Z"/>
</svg>
